<?xml version="1.0" encoding="utf-8"?>
<!-- Generator: Adobe Illustrator 16.0.0, SVG Export Plug-In . SVG Version: 6.00 Build 0)  -->
<!DOCTYPE svg PUBLIC "-//W3C//DTD SVG 1.1//EN" "http://www.w3.org/Graphics/SVG/1.1/DTD/svg11.dtd">
<svg version="1.1" id="Layer_1" xmlns="http://www.w3.org/2000/svg" xmlns:xlink="http://www.w3.org/1999/xlink" x="0px" y="0px"
	 width="340px" height="432px" viewBox="0 0 340 432" enable-background="new 0 0 340 432" xml:space="preserve">
<g id="Layer_1_1_" display="none">
</g>
<path fill="#FFFFFF" d="M2.009,92.744v0.343c0.31,0.013,0.641,0.021,1,0.021C2.653,92.964,2.323,92.847,2.009,92.744z"/>
<path fill="#FFFFFF" d="M336.657,92.649l-118.803,0.089L169.407,3.441V3.439l0,0.001l0-0.001v0.002l-48.447,89.297L2.009,92.649
	v0.095c0.11,0.037,0.236,0.087,0.35,0.127c-0.017,0-0.038,0-0.055-0.001v0.003c-0.095-0.003-0.204-0.002-0.295-0.006v54.229
	l0.305,0.002v0.002l2.155,0.012l17.208,0.109v-0.016l2.437,0.013l-0.007-36.445h87.067L2.304,311.439v14.668h48.041v-0.009
	l6.189-0.001l0.119-21.802l-30.486,0.007l19.492-36.404c-4.884-2.931-9.767-5.838-14.65-7.791c4.884,1.953,9.767,4.86,14.65,7.791
	l15.673-29.273l23.641,60.716c0.373-1.371,0.805-2.72,1.259-4.059l25.44-49.016l48.971,77.629v81.826h-48.818v21.506h57.581h57.895
	v-21.436h-49.083v-82.905l48.335-76.621l25.438,49.011c0.454,1.341,0.888,2.691,1.261,4.064l23.888-61.354l35.44,66.191
	l-30.421-0.007l0.118,21.922l6.19,0.002v0.013h48.041v-14.668L227.64,110.774h86.849l0.22,36.666l2.281-0.001v0.002l0.299-0.002
	l19.221-0.007l-0.001-0.115l0.149-0.001V92.649z M169.407,36.775l29.971,55.977l-30.045,0.022l-29.897-0.022L169.407,36.775z
	 M111.615,202.01c-0.015-0.044-0.029-0.075-0.044-0.075l0,0.001l0-0.001c0,0.001,0,0.001,0,0.002l-25.134,51.415l-13.732-35.966
	l17.934-33.495l39.149-73.118h30.857v172.555L111.615,202.01z M265.766,216.743l-13.978,36.606l-25.134-51.41
	c0-0.001,0-0.003,0-0.005l-0.001,0.002l-0.001-0.002c-0.015,0-0.029,0.032-0.045,0.077l-48.39,80.26V110.774h30.81L265.766,216.743z
	"/>
</svg>
